REM DIRINDEX 1\3,1\2\4,1\2\5,1\2\6
REM DIRNAME folder01,folder02,folder03,folder04,folder05,folder06
TITLE ""
FILE "029.mp3" MP3
  TRACK 01 AUDIO
    TITLE "4:cjc137_1179"
    INDEX 01 00:00:00
  TRACK 02 AUDIO
    TITLE "0:"
    INDEX 01 00:01:07
  TRACK 03 AUDIO
    TITLE "6:cjc137_1180"
    INDEX 01 00:01:17
  TRACK 04 AUDIO
    TITLE "0:"
    INDEX 01 00:02:16
  TRACK 05 AUDIO
    TITLE "5:cjc137_1181"
    INDEX 01 00:02:26
  TRACK 06 AUDIO
    TITLE "0:"
    INDEX 01 00:03:33
  TRACK 07 AUDIO
    TITLE "4:cjc137_1182"
    INDEX 01 00:04:42
  TRACK 08 AUDIO
    TITLE "0:"
    INDEX 01 00:05:44
  TRACK 09 AUDIO
    TITLE "6:cjc137_1183"
    INDEX 01 00:05:54
  TRACK 10 AUDIO
    TITLE "0:"
    INDEX 01 00:06:55
  TRACK 11 AUDIO
    TITLE "5:cjc137_1184"
    INDEX 01 00:06:61
  TRACK 12 AUDIO
    TITLE "0:"
    INDEX 01 00:07:62
  TRACK 13 AUDIO
    TITLE "4:cjc137_1185"
    INDEX 01 00:08:73
  TRACK 14 AUDIO
    TITLE "0:"
    INDEX 01 00:10:12
  TRACK 15 AUDIO
    TITLE "6:cjc137_1186"
    INDEX 01 00:10:18
  TRACK 16 AUDIO
    TITLE "0:"
    INDEX 01 00:11:19
  TRACK 17 AUDIO
    TITLE "5:cjc137_1187"
    INDEX 01 00:11:25
  TRACK 18 AUDIO
    TITLE "0:"
    INDEX 01 00:12:40
  TRACK 19 AUDIO
    TITLE "4:cjc137_1188"
    INDEX 01 00:13:45
  TRACK 20 AUDIO
    TITLE "0:"
    INDEX 01 00:14:60
  TRACK 21 AUDIO
    TITLE "6:cjc137_1189"
    INDEX 01 00:14:68
  TRACK 22 AUDIO
    TITLE "0:"
    INDEX 01 00:15:72
  TRACK 23 AUDIO
    TITLE "5:cjc137_1190"
    INDEX 01 00:16:02
  TRACK 24 AUDIO
    TITLE "0:"
    INDEX 01 00:17:16
  TRACK 25 AUDIO
    TITLE "4:cjc137_1191"
    INDEX 01 00:18:25
  TRACK 26 AUDIO
    TITLE "0:"
    INDEX 01 00:19:38
  TRACK 27 AUDIO
    TITLE "6:cjc137_1192"
    INDEX 01 00:19:46
  TRACK 28 AUDIO
    TITLE "0:"
    INDEX 01 00:20:36
  TRACK 29 AUDIO
    TITLE "5:cjc137_1193"
    INDEX 01 00:20:43
  TRACK 30 AUDIO
    TITLE "0:"
    INDEX 01 00:21:58
  TRACK 31 AUDIO
    TITLE "4:cjc137_1194"
    INDEX 01 00:22:64
  TRACK 32 AUDIO
    TITLE "0:"
    INDEX 01 00:23:71
  TRACK 33 AUDIO
    TITLE "6:cjc137_1195"
    INDEX 01 00:24:04
  TRACK 34 AUDIO
    TITLE "0:"
    INDEX 01 00:25:23
  TRACK 35 AUDIO
    TITLE "5:cjc137_1196"
    INDEX 01 00:25:29
  TRACK 36 AUDIO
    TITLE "0:"
    INDEX 01 00:26:40
  TRACK 37 AUDIO
    TITLE "4:cjc137_1197"
    INDEX 01 00:27:43
  TRACK 38 AUDIO
    TITLE "0:"
    INDEX 01 00:28:60
  TRACK 39 AUDIO
    TITLE "6:cjc137_1198"
    INDEX 01 00:28:66
  TRACK 40 AUDIO
    TITLE "0:"
    INDEX 01 00:29:54
  TRACK 41 AUDIO
    TITLE "5:cjc137_1199"
    INDEX 01 00:29:60
  TRACK 42 AUDIO
    TITLE "0:"
    INDEX 01 00:31:02
  TRACK 43 AUDIO
    TITLE "4:cjc137_1200"
    INDEX 01 00:32:07
  TRACK 44 AUDIO
    TITLE "0:"
    INDEX 01 00:33:11
  TRACK 45 AUDIO
    TITLE "6:cjc137_1201"
    INDEX 01 00:33:21
  TRACK 46 AUDIO
    TITLE "0:"
    INDEX 01 00:34:45
  TRACK 47 AUDIO
    TITLE "5:cjc137_1202"
    INDEX 01 00:34:51
  TRACK 48 AUDIO
    TITLE "0:"
    INDEX 01 00:35:55
  TRACK 49 AUDIO
    TITLE "4:cjc137_1203"
    INDEX 01 00:36:64
  TRACK 50 AUDIO
    TITLE "0:"
    INDEX 01 00:37:71
  TRACK 51 AUDIO
    TITLE "6:cjc137_1204"
    INDEX 01 00:38:02
  TRACK 52 AUDIO
    TITLE "0:"
    INDEX 01 00:38:65
  TRACK 53 AUDIO
    TITLE "5:cjc137_1205"
    INDEX 01 00:38:71
  TRACK 54 AUDIO
    TITLE "0:"
    INDEX 01 00:40:01
  TRACK 55 AUDIO
    TITLE "4:cjc137_1206"
    INDEX 01 00:41:08
  TRACK 56 AUDIO
    TITLE "0:"
    INDEX 01 00:42:19
  TRACK 57 AUDIO
    TITLE "6:cjc137_1207"
    INDEX 01 00:42:27
  TRACK 58 AUDIO
    TITLE "0:"
    INDEX 01 00:43:17
  TRACK 59 AUDIO
    TITLE "5:cjc137_1208"
    INDEX 01 00:43:23
  TRACK 60 AUDIO
    TITLE "0:"
    INDEX 01 00:44:34
  TRACK 61 AUDIO
    TITLE "4:cjc137_1209"
    INDEX 01 00:45:41
  TRACK 62 AUDIO
    TITLE "0:"
    INDEX 01 00:46:54
  TRACK 63 AUDIO
    TITLE "6:cjc137_1210"
    INDEX 01 00:46:62
  TRACK 64 AUDIO
    TITLE "0:"
    INDEX 01 00:48:06
  TRACK 65 AUDIO
    TITLE "5:cjc137_1211"
    INDEX 01 00:48:14
  TRACK 66 AUDIO
    TITLE "0:"
    INDEX 01 00:49:27
  TRACK 67 AUDIO
    TITLE "4:cjc137_1212"
    INDEX 01 00:50:37
  TRACK 68 AUDIO
    TITLE "0:"
    INDEX 01 00:51:42
  TRACK 69 AUDIO
    TITLE "6:cjc137_1213"
    INDEX 01 00:51:50
  TRACK 70 AUDIO
    TITLE "0:"
    INDEX 01 00:52:47
  TRACK 71 AUDIO
    TITLE "5:cjc137_1214"
    INDEX 01 00:52:55
  TRACK 72 AUDIO
    TITLE "0:"
    INDEX 01 00:53:60
  TRACK 73 AUDIO
    TITLE "4:cjc137_1215"
    INDEX 01 00:54:70
  TRACK 74 AUDIO
    TITLE "0:"
    INDEX 01 00:56:08
  TRACK 75 AUDIO
    TITLE "6:cjc137_1216"
    INDEX 01 00:56:14
  TRACK 76 AUDIO
    TITLE "0:"
    INDEX 01 00:57:15
  TRACK 77 AUDIO
    TITLE "5:cjc137_1217"
    INDEX 01 00:57:23
  TRACK 78 AUDIO
    TITLE "0:"
    INDEX 01 00:58:36
  TRACK 79 AUDIO
    TITLE "4:cjc137_1218"
    INDEX 01 00:59:43
  TRACK 80 AUDIO
    TITLE "0:"
    INDEX 01 01:00:47
  TRACK 81 AUDIO
    TITLE "6:cjc137_1219"
    INDEX 01 01:00:55
  TRACK 82 AUDIO
    TITLE "0:"
    INDEX 01 01:01:68
  TRACK 83 AUDIO
    TITLE "5:cjc137_1220"
    INDEX 01 01:02:03
  TRACK 84 AUDIO
    TITLE "0:"
    INDEX 01 01:03:06
